<svg xmlns="http://www.w3.org/2000/svg" width="960" height="600" viewBox="0 0 960 600">
  <rect width="960" height="600" fill="#10151b"/>
  <rect x="40" y="40" width="880" height="520" rx="14" fill="#1c232c" stroke="#303946"/>
  <text x="70" y="82" font-family="Arial" font-size="24" font-weight="700" fill="#e7edf5">Queue Review</text>
  <rect x="70" y="112" width="160" height="30" rx="7" fill="#263342"/>
  <rect x="246" y="112" width="120" height="30" rx="7" fill="#263342"/>
  <rect x="782" y="112" width="100" height="30" rx="7" fill="#2f7d59"/>
  <rect x="70" y="174" width="812" height="1" fill="#3a4554"/>
  <rect x="70" y="220" width="812" height="1" fill="#303946"/>
  <rect x="70" y="266" width="812" height="1" fill="#303946"/>
  <rect x="70" y="312" width="812" height="1" fill="#303946"/>
  <rect x="70" y="358" width="812" height="1" fill="#303946"/>
  <rect x="70" y="404" width="812" height="1" fill="#303946"/>
  <rect x="90" y="190" width="86" height="12" rx="6" fill="#9ba7b5"/>
  <rect x="230" y="190" width="132" height="12" rx="6" fill="#9ba7b5"/>
  <rect x="430" y="190" width="72" height="12" rx="6" fill="#9ba7b5"/>
  <rect x="90" y="236" width="96" height="12" rx="6" fill="#dce6f2"/>
  <rect x="230" y="236" width="210" height="12" rx="6" fill="#738093"/>
  <rect x="640" y="230" width="70" height="22" rx="11" fill="#4b2f34"/>
  <rect x="90" y="282" width="96" height="12" rx="6" fill="#dce6f2"/>
  <rect x="230" y="282" width="250" height="12" rx="6" fill="#738093"/>
  <rect x="640" y="276" width="78" height="22" rx="11" fill="#4b4028"/>
  <rect x="90" y="328" width="96" height="12" rx="6" fill="#dce6f2"/>
  <rect x="230" y="328" width="196" height="12" rx="6" fill="#738093"/>
  <rect x="640" y="322" width="62" height="22" rx="11" fill="#283d34"/>
</svg>
