<svg xmlns="http://www.w3.org/2000/svg" width="960" height="600" viewBox="0 0 960 600">
  <rect width="960" height="600" fill="#f6f8fb"/>
  <text x="56" y="76" font-family="Arial" font-size="28" font-weight="700" fill="#202838">Clean Components</text>
  <rect x="56" y="116" width="848" height="420" rx="18" fill="#ffffff" stroke="#d8dee8"/>
  <rect x="96" y="160" width="160" height="44" rx="10" fill="#3454d1"/>
  <text x="132" y="188" font-family="Arial" font-size="14" fill="#ffffff">Primary</text>
  <rect x="280" y="160" width="160" height="44" rx="10" fill="#ffffff" stroke="#b9c2d0"/>
  <text x="318" y="188" font-family="Arial" font-size="14" fill="#283142">Secondary</text>
  <rect x="96" y="244" width="344" height="48" rx="10" fill="#ffffff" stroke="#b9c2d0"/>
  <text x="118" y="274" font-family="Arial" font-size="14" fill="#8a93a4">Input placeholder</text>
  <rect x="96" y="332" width="344" height="96" rx="14" fill="#f9fbfe" stroke="#d8dee8"/>
  <rect x="122" y="360" width="180" height="14" rx="7" fill="#283142"/>
  <rect x="122" y="390" width="264" height="10" rx="5" fill="#aeb7c5"/>
  <rect x="500" y="160" width="334" height="268" rx="14" fill="#ffffff" stroke="#d8dee8"/>
  <rect x="526" y="190" width="120" height="12" rx="6" fill="#283142"/>
  <rect x="526" y="232" width="282" height="1" fill="#e5e9f0"/>
  <rect x="526" y="270" width="282" height="1" fill="#e5e9f0"/>
  <rect x="526" y="308" width="282" height="1" fill="#e5e9f0"/>
  <rect x="526" y="346" width="282" height="1" fill="#e5e9f0"/>
  <rect x="526" y="382" width="64" height="22" rx="11" fill="#e8edff"/>
  <rect x="612" y="382" width="72" height="22" rx="11" fill="#e9f7ef"/>
</svg>
