<svg xmlns="http://www.w3.org/2000/svg" width="960" height="600" viewBox="0 0 960 600">
  <rect width="960" height="600" fill="#eef7ff"/>
  <rect x="356" y="28" width="248" height="544" rx="34" fill="#ffffff" stroke="#bfd4e8" stroke-width="3"/>
  <rect x="384" y="70" width="192" height="86" rx="24" fill="#7c65ff"/>
  <text x="414" y="118" font-family="Arial" font-size="20" font-weight="700" fill="#ffffff">Today</text>
  <rect x="384" y="180" width="192" height="78" rx="20" fill="#ffe5a8"/>
  <rect x="410" y="210" width="96" height="12" rx="6" fill="#26324a"/>
  <rect x="410" y="236" width="132" height="9" rx="5" fill="#7a6d55"/>
  <rect x="384" y="278" width="192" height="78" rx="20" fill="#d7f7e7"/>
  <rect x="410" y="308" width="108" height="12" rx="6" fill="#26324a"/>
  <rect x="410" y="334" width="124" height="9" rx="5" fill="#557265"/>
  <rect x="384" y="376" width="192" height="78" rx="20" fill="#ffdbe2"/>
  <rect x="410" y="406" width="88" height="12" rx="6" fill="#26324a"/>
  <rect x="410" y="432" width="118" height="9" rx="5" fill="#805b65"/>
  <rect x="398" y="500" width="164" height="42" rx="21" fill="#26324a"/>
  <circle cx="428" cy="521" r="7" fill="#ffffff"/>
  <circle cx="480" cy="521" r="7" fill="#ffffff"/>
  <circle cx="532" cy="521" r="7" fill="#ffffff"/>
</svg>
